<?xml version="1.0" encoding="UTF-8"?>
<svg width="22px" height="38px" viewBox="0 0 22 38" version="1.1" xmlns="http://www.w3.org/2000/svg" xmlns:xlink="http://www.w3.org/1999/xlink">
    <title>路径</title>
    <g id="视觉稿" stroke="none" stroke-width="1" fill="none" fill-rule="evenodd">
        <g id="1-8" transform="translate(-35.000000, -214.000000)" fill="#1677FF" fill-rule="nonzero">
            <g id="导航:30/导航栏NavigationBar:1/标题带icon/白色" transform="translate(0.000000, 189.000000)">
                <g id="箭头" transform="translate(24.000000, 22.000000)">
                    <g id="left" transform="translate(11.816408, 3.652344)">
                        <path d="M19.8799571,2.77239377 L3.6023874,17.3997038 C3.07881257,17.8702121 3.0358008,18.676006 3.50626619,19.1995809 L3.50626612,19.1995808 C3.5365758,19.2332928 3.56866155,19.2653643 3.60238733,19.295659 L19.8799571,33.923012 C20.5330828,34.5098798 20.5867079,35.515092 19.99984,36.1681747 C19.4129721,36.8213005 18.40776,36.8749256 17.7546343,36.2880577 L1.47706454,21.6607477 L1.47706416,21.6607474 C1.35920676,21.5548396 1.24708483,21.4427177 1.14117705,21.3248603 C-0.503067047,19.4951198 -0.352676247,16.6789017 1.47706416,15.0346576 L17.7546339,0.407347637 C18.4077596,-0.179563203 19.4129718,-0.125895171 19.9998396,0.527230589 C20.5867075,1.18031338 20.5330824,2.18552549 19.8799567,2.77239336 L19.8799571,2.77239377 Z" id="路径"></path>
                    </g>
                </g>
            </g>
        </g>
    </g>
</svg>