<?xml version="1.0" encoding="UTF-8"?>
<svg width="30px" height="6px" viewBox="0 0 30 6" version="1.1" xmlns="http://www.w3.org/2000/svg" xmlns:xlink="http://www.w3.org/1999/xlink">
    <title>形状结合</title>
    <g id="视觉稿" stroke="none" stroke-width="1" fill="none" fill-rule="evenodd">
        <g id="1-8" transform="translate(-687.000000, -230.000000)" fill="#1677FF">
            <g id="@导航栏/更多/黑色" transform="translate(678.000000, 209.000000)">
                <path d="M12,27 C13.6568542,27 15,25.6568542 15,24 C15,22.3431458 13.6568542,21 12,21 C10.3431458,21 9,22.3431458 9,24 C9,25.6568542 10.3431458,27 12,27 Z M24,27 C25.6568542,27 27,25.6568542 27,24 C27,22.3431458 25.6568542,21 24,21 C22.3431458,21 21,22.3431458 21,24 C21,25.6568542 22.3431458,27 24,27 Z M36,27 C37.6568542,27 39,25.6568542 39,24 C39,22.3431458 37.6568542,21 36,21 C34.3431458,21 33,22.3431458 33,24 C33,25.6568542 34.3431458,27 36,27 Z" id="形状结合"></path>
            </g>
        </g>
    </g>
</svg>